<?xml version="1.0" standalone="no"?>
<!DOCTYPE svg PUBLIC "-//W3C//DTD SVG 20010904//EN"
 "http://www.w3.org/TR/2001/REC-SVG-20010904/DTD/svg10.dtd">
<svg version="1.0" xmlns="http://www.w3.org/2000/svg"
 width="281.000000pt" height="281.000000pt" viewBox="0 0 281.000000 281.000000"
 preserveAspectRatio="xMidYMid meet">
<metadata>
Created by potrace 1.11, written by Peter Selinger 2001-2013
</metadata>
<g transform="translate(0.000000,281.000000) scale(0.100000,-0.100000)"
fill="#000000" stroke="none">
<path d="M1202 2488 c-6 -40 -14 -116 -18 -169 l-6 -96 -32 -11 c-17 -6 -58
-16 -90 -22 -164 -33 -323 -129 -396 -238 -68 -103 -93 -289 -55 -419 30 -102
144 -321 248 -473 147 -216 332 -361 477 -377 l61 -6 -3 -55 -3 -56 -59 -13
c-189 -43 -309 -170 -278 -295 l11 -43 -50 -44 c-47 -41 -109 -131 -109 -158
0 -10 29 -13 113 -13 103 0 116 2 133 21 l19 21 17 -22 c10 -12 24 -20 33 -18
12 2 1 24 -45 89 -33 48 -68 107 -79 132 -19 44 -19 46 -1 62 60 55 557 82
700 39 62 -18 65 -21 68 -52 4 -35 -17 -83 -80 -192 -21 -35 -38 -68 -38 -72
0 -5 34 -8 75 -8 74 0 75 0 97 35 13 19 29 35 35 35 7 0 30 -16 52 -35 l38
-35 107 0 c78 0 106 3 106 13 0 6 -13 39 -29 72 -29 62 -110 147 -155 165 -23
9 -25 13 -19 60 11 91 -37 170 -133 219 -50 26 -161 51 -230 51 -59 0 -60 1
-70 110 l-6 65 38 25 c240 157 470 511 514 790 21 136 9 244 -40 347 -40 86
-73 127 -145 178 -119 85 -249 123 -450 131 -71 3 -139 7 -151 9 -17 4 -28 25
-54 102 -39 118 -86 223 -97 223 -5 0 -14 -33 -21 -72z m80 -114 c26 -69 44
-132 41 -140 -7 -19 -66 -36 -97 -28 -21 5 -26 12 -26 36 0 54 23 258 30 258
3 0 27 -57 52 -126z m83 -180 c-31 -23 -95 -36 -152 -32 -51 5 -72 12 -61 23
7 8 56 7 98 0 23 -4 49 -1 70 8 47 21 72 21 45 1z m242 -25 c104 -14 215 -45
283 -79 79 -40 166 -130 204 -209 29 -63 31 -71 30 -191 0 -108 -4 -135 -27
-204 -31 -90 -106 -251 -132 -281 l-17 -20 8 20 c53 149 74 226 84 309 23 195
-22 341 -127 410 -52 34 -190 81 -294 100 -124 23 -383 21 -524 -3 -166 -29
-335 -74 -323 -87 3 -3 41 4 84 15 346 86 668 89 909 8 63 -21 70 -26 73 -53
2 -16 17 -96 33 -177 56 -287 34 -437 -94 -629 -30 -46 -85 -114 -121 -152
-36 -38 -66 -71 -66 -73 0 -8 -75 -98 -90 -108 -21 -14 -139 -44 -172 -45 -58
0 -252 115 -262 155 -4 16 -14 25 -25 25 -61 0 -333 436 -394 630 -20 65 -25
225 -8 286 37 138 195 263 394 313 l72 18 9 -23 c11 -26 42 -42 103 -53 92
-18 233 34 233 84 0 22 4 25 39 25 22 0 75 -5 118 -11z m-259 -36 c-5 -28 -91
-46 -150 -32 -25 6 -49 18 -52 26 -5 13 0 15 36 11 24 -3 66 -2 93 2 76 11 77
11 73 -7z m485 -1624 c28 -9 37 -18 37 -34 0 -12 9 -30 20 -40 23 -21 26 -53
7 -79 -12 -17 -16 -17 -60 -2 -165 56 -572 38 -712 -32 -22 -11 -43 -18 -47
-16 -14 9 16 68 52 104 37 37 144 84 219 96 37 6 39 5 46 -25 8 -36 34 -57 88
-72 77 -21 157 27 157 94 l0 30 78 -6 c42 -3 94 -11 115 -18z"/>
<path d="M1325 1960 c-8 -25 11 -51 31 -43 20 8 14 57 -8 61 -10 2 -19 -5 -23
-18z"/>
<path d="M1557 1974 c-4 -4 -7 -18 -7 -31 0 -20 5 -24 23 -21 16 2 22 10 22
28 0 24 -23 39 -38 24z"/>
<path d="M1070 1930 c0 -23 5 -30 19 -30 10 0 21 7 25 15 8 23 -4 45 -25 45
-14 0 -19 -7 -19 -30z"/>
<path d="M862 1918 c-14 -14 -16 -45 -3 -52 16 -10 41 5 41 24 0 26 -23 43
-38 28z"/>
<path d="M1761 1917 c-22 -22 -2 -61 25 -50 8 3 14 15 14 28 0 26 -22 39 -39
22z"/>
<path d="M674 1846 c-8 -21 3 -49 16 -41 5 3 10 15 10 25 0 25 -18 36 -26 16z"/>
<path d="M1400 1743 c-94 -49 -108 -186 -25 -251 51 -40 153 -24 204 31 31 34
39 102 17 148 -33 70 -130 106 -196 72z"/>
<path d="M944 1740 c-11 -4 -33 -22 -47 -40 -22 -26 -27 -42 -27 -86 0 -96 42
-144 125 -144 124 0 195 116 131 211 -40 58 -120 84 -182 59z"/>
<path d="M1565 1314 c-190 -78 -358 -109 -535 -98 -97 7 -100 6 -100 -14 0
-12 7 -39 15 -59 8 -21 21 -63 30 -94 15 -55 17 -57 78 -85 59 -28 69 -29 202
-29 119 0 151 4 215 24 84 26 135 50 198 93 35 24 42 34 42 63 0 44 -36 193
-51 211 -15 19 -23 18 -94 -12z"/>
<path d="M1317 794 c-11 -11 -8 -52 4 -60 6 -3 18 1 27 10 13 12 14 21 6 33
-12 20 -27 26 -37 17z"/>
<path d="M1470 295 c0 -16 6 -25 15 -25 9 0 15 9 15 25 0 16 -6 25 -15 25 -9
0 -15 -9 -15 -25z"/>
<path d="M1618 308 c-7 -19 2 -38 17 -38 15 0 24 19 18 38 -3 6 -11 12 -18 12
-7 0 -15 -6 -17 -12z"/>
<path d="M1340 290 c0 -15 5 -20 18 -18 9 2 17 10 17 18 0 8 -8 16 -17 18 -13
2 -18 -3 -18 -18z"/>
<path d="M1217 283 c-14 -13 -6 -33 13 -33 13 0 20 7 20 20 0 19 -20 27 -33
13z"/>
<path d="M1757 283 c-13 -12 -7 -43 7 -43 19 0 28 14 20 34 -7 17 -16 20 -27
9z"/>
<path d="M1110 225 c0 -8 7 -15 15 -15 8 0 15 7 15 15 0 8 -7 15 -15 15 -8 0
-15 -7 -15 -15z"/>
</g>
</svg>
